# xmcd
#
# Track frame offsets:
#	150
#	15272
#	39350
#	60392
#	74096
#	99771
#	114004
#	135042
#	152943
#	198098
#	220448
#	245792
#
# Disc length: 3604 seconds
#
# Revision: 1
# Processed by: cddbd v1.5.2PL0 Copyright (c) Steve Scherf et al.
# Submitted via: audiograbber 1.83.01
#
DISCID=940e120c
DTITLE=Gransten Bluesband - Music Liberation Front
DYEAR=2009
DGENRE=Blues
TTITLE0=Don't go no further
TTITLE1=Yellow Moon
TTITLE2=Love and Happiness
TTITLE3=My find Baby
TTITLE4=Next door Neighbour
TTITLE5=Freedom
TTITLE6=Fly like an Eagle
TTITLE7=Only Time can heal
TTITLE8=Papa was a Rolling Stone
TTITLE9=Hey Joe
TTITLE10=Oh so strong
TTITLE11=Burning Bush
EXTD=www.granstenbluesband.com
EXTT0=
EXTT1=
EXTT2=
EXTT3=
EXTT4=
EXTT5=
EXTT6=
EXTT7=
EXTT8=
EXTT9=
EXTT10=
EXTT11=
PLAYORDER=
